#!OML:ASF F:\VICON\USERDATA\INSTALL\rory3\rory3.ASF
:FULLY-SPECIFIED
:DEGREES
288
root -0.764757 17.7308 -1.38934 3.11715 -6.15232 3.4524
lowerback 14.0444 0.167103 -0.557112
upperback 3.75352 0.143401 0.23285
thorax -3.91421 0.0697897 0.534303
lowerneck -9.69101 -0.790164 -6.80129
upperneck -1.55569 -0.431456 6.42135
head 1.2455 -0.0657516 3.28942
rclavicle -2.20651e-014 -5.96354e-015
rhumerus -25.3472 -2.58587 -80.7914
rradius 27.7531
rwrist 13.7101
rhand -25.3801 -4.24484
rfingers 7.12502
rthumb 1.14442 -34.2215
lclavicle -2.20651e-014 -5.96354e-015
lhumerus -23.542 10.464 82.148
lradius 31.6103
lwrist 1.69985
lhand -21.8158 24.8937
lfingers 7.12502
lthumb 4.58663 54.824
rfemur -22.7153 11.3699 14.8062
rtibia 54.4846
rfoot -28.0129 -9.7269
rtoes -6.8661
lfemur -19.2597 1.53443 -20.7083
ltibia 48.5455
lfoot -25.4599 4.97159
ltoes -8.74933
289
root -0.771815 17.7773 -1.39084 3.35792 -6.09943 3.44535
lowerback 14.0194 0.166219 -0.605327
upperback 3.65426 0.13554 0.226104
thorax -4.0049 0.066904 0.555814
lowerneck -9.76194 -0.769822 -6.89596
upperneck -1.60988 -0.3888 6.47403
head 1.23873 -0.0418471 3.328
rclavicle 1.07344e-014 3.97569e-015
rhumerus -25.3356 -2.56809 -80.8411
rradius 27.7907
rwrist 13.6242
rhand -25.1034 -4.45913
rfingers 7.12502
rthumb 1.41169 -34.4342
lclavicle 1.07344e-014 3.97569e-015
lhumerus -23.4968 10.3641 82.0936
lradius 31.7879
lwrist 1.87418
lhand -21.7096 24.8736
lfingers 7.12502
lthumb 4.68914 54.8017
rfemur -22.5966 11.4031 14.755
rtibia 53.7204
rfoot -27.5748 -9.55784
rtoes -6.01929
lfemur -19.1096 1.42805 -20.6913
ltibia 47.6686
lfoot -25.0439 5.1073
ltoes -8.62191
290
root -0.77938 17.8266 -1.39169 3.62656 -5.99124 3.41253
lowerback 13.9249 0.132137 -0.590146
upperback 3.56574 0.0927455 0.207204
thorax -4.04588 0.0462677 0.534783
lowerneck -9.76027 -0.741068 -6.91879
upperneck -1.68283 -0.345259 6.46256
head 1.21133 -0.0200157 3.32948
rclavicle -1.72943e-014 -5.1684e-015
rhumerus -25.3053 -2.48516 -80.9376
rradius 27.803
rwrist 13.5227
rhand -24.7694 -4.37377
rfingers 7.12502
rthumb 1.73431 -34.3465
lclavicle -1.72943e-014 -5.1684e-015
lhumerus -23.4852 10.2315 82.0144
lradius 32.0151
lwrist 2.07929
lhand -21.7929 24.8386
lfingers 7.12502
lthumb 4.60873 54.7685
rfemur -22.5908 11.3847 14.7784
rtibia 52.9954
rfoot -26.3061 -9.9603
rtoes -7.9343
lfemur -18.9682 1.34252 -20.657
ltibia 46.7819
lfoot -24.6726 5.28585
ltoes -8.91822
291
root -0.786398 17.8826 -1.38529 3.8517 -5.94423 3.53379
lowerback 13.748 0.118336 -0.716987
upperback 3.49435 0.0542203 0.123124
thorax -4.02414 0.0283461 0.524967
lowerneck -9.53304 -0.731012 -6.8323
upperneck -1.91277 -0.345738 6.38588
head 1.09399 -0.0247972 3.28172
rclavicle -5.56597e-015 1.47101e-014
rhumerus -25.3744 -2.44226 -81.0509
rradius 27.8714
rwrist 13.576
rhand -24.7476 -4.02057
rfingers 7.12502
rthumb 1.75529 -33.9931
lclavicle -5.56597e-015 1.47101e-014
lhumerus -23.5478 10.078 81.8827
lradius 32.3048
lwrist 2.33637
lhand -21.7577 25.1157
lfingers 7.12502
lthumb 4.64274 55.0448
rfemur -22.6084 11.4036 14.6387
rtibia 52.29
rfoot -26.1521 -10.4862
rtoes -8.8391
lfemur -18.7459 1.30109 -20.8137
ltibia 45.8995
lfoot -24.3394 5.48192
ltoes -9.20054
292
root -0.794663 17.9265 -1.38192 4.00278 -5.91864 3.53408
lowerback 13.682 0.121388 -0.758708
upperback 3.46184 0.0507664 0.0755191
thorax -4.0223 0.0270421 0.499289
lowerneck -9.49426 -0.75108 -6.83624
upperneck -2.02231 -0.37131 6.42642
head 1.05365 -0.0371245 3.29425
rclavicle -1.33186e-014 -1.98785e-015
rhumerus -25.4466 -2.37088 -81.1681
rradius 28.039
rwrist 13.4722
rhand -24.9559 -3.71212
rfingers 7.12502
rthumb 1.5542 -33.6862
lclavicle -1.33186e-014 -1.98785e-015
lhumerus -23.5036 9.94606 81.755
lradius 32.4607
lwrist 2.61116
lhand -21.8105 25.2173
lfingers 7.12502
lthumb 4.59174 55.1475
rfemur -22.4436 11.5621 14.6338
rtibia 51.6105
rfoot -25.9682 -10.5961
rtoes -8.45542
lfemur -18.4784 1.35119 -20.804
ltibia 45.0808
lfoot -23.974 5.44028
ltoes -9.10195
293
root -0.804521 17.9629 -1.3824 4.10666 -5.90853 3.49503
lowerback 13.6605 0.140068 -0.78001
upperback 3.46822 0.0715136 0.051419
thorax -4.00415 0.0373109 0.482616
lowerneck -9.53518 -0.778664 -6.94882
upperneck -2.05745 -0.394252 6.54521
head 1.05338 -0.0452104 3.35661
rclavicle 1.68967e-014 6.36111e-015
rhumerus -25.4445 -2.30118 -81.248
rradius 28.1894
rwrist 13.3479
rhand -25.0141 -2.78155
rfingers 7.12502
rthumb 1.49792 -32.756
lclavicle 1.68967e-014 6.36111e-015
lhumerus -23.3595 9.79 81.6622
lradius 32.5777
lwrist 2.91173
lhand -21.9371 24.9997
lfingers 7.12502
lthumb 4.46954 54.9325
rfemur -22.1243 11.7717 14.6845
rtibia 50.9308
rfoot -25.9841 -10.4891
rtoes -7.36792
lfemur -18.2285 1.43599 -20.7368
ltibia 44.3521
lfoot -23.6493 5.33588
ltoes -8.67035
294
root -0.81548 17.9993 -1.38352 4.21952 -5.86552 3.40699
lowerback 13.665 0.139199 -0.746822
upperback 3.43722 0.0743745 0.0402137
thorax -4.03914 0.0387524 0.451651
lowerneck -9.41378 -0.807432 -6.99348
upperneck -2.16789 -0.431995 6.57854
head 0.999289 -0.0648466 3.37349
rclavicle 3.97569e-015 5.1684e-015
rhumerus -25.4572 -2.30087 -81.3129
rradius 28.2478
rwrist 13.4067
rhand -25.0095 -1.57217
rfingers 7.12502
rthumb 1.50236 -31.5466
lclavicle 3.97569e-015 5.1684e-015
lhumerus -23.2782 9.63174 81.5511
lradius 32.6712
lwrist 3.11342
lhand -22.0823 25.0531
lfingers 7.12502
lthumb 4.32925 54.9888
rfemur -21.8714 11.9134 14.8219
rtibia 50.2521
rfoot -25.8293 -10.6317
rtoes -7.00294
lfemur -18.049 1.52218 -20.6128
ltibia 43.709
lfoot -23.3052 5.31215
ltoes -8.29859
295
root -0.826068 18.0363 -1.37986 4.3906 -5.83374 3.19689
lowerback 13.5375 0.120081 -0.582988
upperback 3.41755 0.0731356 0.0492331
thorax -3.99024 0.0369438 0.36879
lowerneck -9.42242 -0.824696 -6.92751
upperneck -2.17685 -0.460217 6.50793
head 0.998628 -0.0803801 3.33493
rclavicle 6.55989e-015 1.23246e-014
rhumerus -25.4782 -2.06691 -81.4682
rradius 28.3848
rwrist 13.3407
rhand -25.1038 -1.24503
rfingers 7.12502
rthumb 1.41127 -31.2201
lclavicle 6.55989e-015 1.23246e-014
lhumerus -23.2244 9.55284 81.4097
lradius 32.7354
lwrist 3.21314
lhand -22.2808 25.1003
lfingers 7.12502
lthumb 4.13758 55.0399
rfemur -21.7016 12.1167 15.1062
rtibia 49.568
rfoot -25.37 -11.0648
rtoes -7.32981
lfemur -17.9009 1.6387 -20.3761
ltibia 43.1331
lfoot -23.0706 5.36698
ltoes -8.0157
296
root -0.835949 18.0722 -1.37509 4.53862 -5.81157 3.19091
lowerback 13.3305 0.119298 -0.650116
upperback 3.44413 0.0634242 0.0236611
thorax -3.84953 0.0321163 0.381653
lowerneck -9.55439 -0.818006 -6.98497
upperneck -2.12228 -0.439945 6.57236
head 1.0396 -0.0669259 3.37088
rclavicle 9.93923e-015 1.63003e-014
rhumerus -25.4433 -1.71274 -81.6283
rradius 28.5735
rwrist 13.0655
rhand -25.0434 -1.28355
rfingers 7.12502
rthumb 1.46967 -31.2582
lclavicle 9.93923e-015 1.63003e-014
lhumerus -23.1042 9.54835 81.3007
lradius 32.7439
lwrist 3.28127
lhand -22.46 25.086
lfingers 7.12502
lthumb 3.9646 55.0288
rfemur -21.51 12.2764 15.1392
rtibia 48.9213
rfoot -25.0277 -11.325
rtoes -7.38466
lfemur -17.7176 1.72186 -20.3748
ltibia 42.5774
lfoot -22.9056 5.38984
ltoes -7.85056
297
root -0.844338 18.103 -1.3747 4.71448 -5.76049 3.18475
lowerback 13.187 0.103626 -0.69383
upperback 3.41139 0.0371552 0.00202802
thorax -3.80535 0.0194358 0.388021
lowerneck -9.54758 -0.831849 -7.03922
upperneck -2.13856 -0.453016 6.6042
head 1.03487 -0.0726884 3.39184
rclavicle -3.57812e-015 1.59028e-015
rhumerus -25.4569 -1.34264 -81.8
rradius 28.8589
rwrist 12.7408
rhand -24.8154 -1.97041
rfingers 7.12502
rthumb 1.68984 -31.9435
lclavicle -3.57812e-015 1.59028e-015
lhumerus -23.0104 9.63844 81.1797
lradius 32.689
lwrist 3.21104
lhand -22.3813 24.9049
lfingers 7.12502
lthumb 4.0406 54.8464
rfemur -21.3743 12.3889 15.1517
rtibia 48.3195
rfoot -24.8343 -11.4549
rtoes -6.8706
lfemur -17.6373 1.7424 -20.3625
ltibia 42.0599
lfoot -22.6681 5.37832
ltoes -7.45827
298
root -0.852301 18.1325 -1.37412 4.90142 -5.61065 3.07935
lowerback 13.0682 0.0625406 -0.59065
upperback 3.34964 -0.00259447 -0.00371962
thorax -3.80482 -0.00051679 0.330146
lowerneck -9.49813 -0.857927 -6.99377
upperneck -2.15515 -0.4944 6.55248
head 1.02277 -0.0952411 3.36276
rclavicle 1.12313e-014 6.36111e-015
rhumerus -25.5751 -1.10032 -81.9587
rradius 29.1956
rwrist 12.6053
rhand -24.8141 -2.74213
rfingers 7.12502
rthumb 1.69109 -32.7152
lclavicle 1.12313e-014 6.36111e-015
lhumerus -23.0104 9.7343 81.0165
lradius 32.7242
lwrist 3.02433
lhand -22.0023 24.9968
lfingers 7.12502
lthumb 4.40657 54.9309
rfemur -21.2355 12.4194 15.3035
rtibia 47.7569
rfoot -24.6482 -11.6641
rtoes -6.56172
lfemur -17.5863 1.67337 -20.2195
ltibia 41.5571
lfoot -22.3931 5.32059
ltoes -7.06839
